<svg width="21" height="22" viewBox="0 0 21 22" fill="none" xmlns="http://www.w3.org/2000/svg">
<path d="M6.28783 11.062C7.09463 12.7281 8.44186 14.0718 10.11 14.8743C10.2331 14.9326 10.3692 14.9578 10.5049 14.9475C10.6407 14.9372 10.7714 14.8917 10.8843 14.8155L13.3344 13.1789C13.4426 13.1054 13.5677 13.0606 13.698 13.0486C13.8282 13.0367 13.9594 13.0578 14.0792 13.1103L18.6658 15.0802C18.8226 15.1454 18.9536 15.2604 19.0386 15.4074C19.1236 15.5543 19.1579 15.7252 19.1363 15.8936C18.9909 17.0282 18.4371 18.071 17.5784 18.8269C16.7198 19.5827 15.6152 19.9997 14.4712 20C10.9363 20 7.54606 18.5957 5.04645 16.0961C2.54684 13.5965 1.14258 10.2063 1.14258 6.67134C1.14284 5.52743 1.5599 4.4228 2.31572 3.56415C3.07155 2.70551 4.11434 2.15168 5.24898 2.00631C5.41739 1.98468 5.58824 2.01901 5.73523 2.10401C5.88221 2.18901 5.99718 2.31998 6.06242 2.47673L8.03232 7.07316C8.08355 7.19111 8.10498 7.31984 8.09472 7.44802C8.08447 7.5762 8.04284 7.6999 7.97352 7.8082L6.33683 10.2975C6.26397 10.4101 6.2212 10.5395 6.21262 10.6733C6.20404 10.8072 6.22994 10.941 6.28783 11.062Z" stroke="#DEB441" stroke-width="2.09465" stroke-linecap="round" stroke-linejoin="round"/>
</svg>
