<svg width="26" height="26" viewBox="0 0 26 26" fill="none" xmlns="http://www.w3.org/2000/svg">
<path d="M7.43203 13.0895C8.59741 15.4961 10.5434 17.4371 12.953 18.5963C13.1307 18.6804 13.3273 18.7169 13.5234 18.702C13.7195 18.6871 13.9083 18.6214 14.0713 18.5113L17.6104 16.1472C17.7667 16.0412 17.9474 15.9765 18.1356 15.9592C18.3237 15.9418 18.5132 15.9724 18.6863 16.0482L25.3114 18.8936C25.5378 18.9878 25.727 19.1539 25.8498 19.3662C25.9725 19.5785 26.0221 19.8253 25.9909 20.0685C25.7809 21.7075 24.9809 23.2137 23.7407 24.3055C22.5004 25.3972 20.9048 25.9996 19.2525 26C14.1464 26 9.24947 23.9716 5.63893 20.3611C2.02838 16.7505 0 11.8536 0 6.74749C0.000372401 5.09517 0.602794 3.4996 1.69454 2.25933C2.78629 1.01907 4.29255 0.219098 5.93147 0.00911536C6.17473 -0.022132 6.42152 0.027453 6.63383 0.150235C6.84614 0.273017 7.0122 0.462187 7.10644 0.688616L9.95185 7.3279C10.0258 7.49827 10.0568 7.68422 10.042 7.86937C10.0272 8.05452 9.96705 8.23318 9.86691 8.38962L7.50282 11.9853C7.39756 12.1479 7.33579 12.3349 7.3234 12.5282C7.31101 12.7215 7.34841 12.9148 7.43203 13.0895Z" fill="#DEB441"/>
</svg>
