<svg width="24" height="25" viewBox="0 0 24 25" fill="none" xmlns="http://www.w3.org/2000/svg">
<g clip-path="url(#clip0_211_213)">
<path d="M8.5045 4.71045C8.50378 4.83653 8.52794 4.96151 8.57561 5.07823C8.62329 5.19494 8.69353 5.3011 8.78232 5.39062L15.7756 12.3743L8.78232 19.3579C8.60193 19.5383 8.50059 19.783 8.50059 20.0381C8.50059 20.2932 8.60193 20.5379 8.78232 20.7183C8.96271 20.8987 9.20737 21 9.46248 21C9.7176 21 9.96226 20.8987 10.1426 20.7183L17.8065 13.0544C17.8963 12.9654 17.9675 12.8594 18.0162 12.7427C18.0648 12.626 18.0898 12.5007 18.0898 12.3743C18.0898 12.2478 18.0648 12.1226 18.0162 12.0059C17.9675 11.8891 17.8963 11.7832 17.8065 11.6941L10.1426 4.03029C10.0536 3.9405 9.94764 3.86923 9.8309 3.82059C9.71416 3.77196 9.58895 3.74692 9.46248 3.74692C9.33602 3.74692 9.2108 3.77196 9.09407 3.82059C8.97733 3.86923 8.87138 3.9405 8.78232 4.03029C8.69353 4.1198 8.62329 4.22596 8.57561 4.34268C8.52794 4.4594 8.50378 4.58438 8.5045 4.71045Z" fill="black"/>
</g>
<defs>
<clipPath id="clip0_211_213">
<rect width="24" height="24" fill="white" transform="matrix(-1.30134e-07 -1 -1 1.32146e-07 24 24.5)"/>
</clipPath>
</defs>
</svg>
