<svg width="24" height="25" viewBox="0 0 24 25" fill="none" xmlns="http://www.w3.org/2000/svg">
<g clip-path="url(#clip0_211_207)">
<path d="M15.4955 4.71045C15.4962 4.83653 15.4721 4.96151 15.4244 5.07823C15.3767 5.19494 15.3065 5.3011 15.2177 5.39062L8.22444 12.3743L15.2177 19.3579C15.3981 19.5383 15.4994 19.783 15.4994 20.0381C15.4994 20.2932 15.3981 20.5379 15.2177 20.7183C15.0373 20.8987 14.7926 21 14.5375 21C14.2824 21 14.0377 20.8987 13.8574 20.7183L6.19353 13.0544C6.10374 12.9654 6.03247 12.8594 5.98383 12.7427C5.9352 12.626 5.91016 12.5007 5.91016 12.3743C5.91016 12.2478 5.9352 12.1226 5.98383 12.0059C6.03247 11.8891 6.10374 11.7832 6.19353 11.6941L13.8574 4.03029C13.9464 3.9405 14.0524 3.86923 14.1691 3.82059C14.2858 3.77196 14.4111 3.74692 14.5375 3.74692C14.664 3.74692 14.7892 3.77196 14.9059 3.82059C15.0227 3.86923 15.1286 3.9405 15.2177 4.03029C15.3065 4.1198 15.3767 4.22596 15.4244 4.34268C15.4721 4.45939 15.4962 4.58437 15.4955 4.71045Z" fill="black"/>
</g>
<defs>
<clipPath id="clip0_211_207">
<rect width="24" height="24" fill="white" transform="translate(0 24.5) rotate(-90)"/>
</clipPath>
</defs>
</svg>
