<svg width="19" height="19" viewBox="0 0 19 19" fill="none" xmlns="http://www.w3.org/2000/svg">
<path d="M17.7422 0.828125C17.5547 0.640625 17.3203 0.546875 17.0391 0.546875C16.7578 0.546875 16.5234 0.640625 16.3359 0.828125L9.04688 8.11719L1.73438 0.828125C1.54688 0.640625 1.31641 0.546875 1.04297 0.546875C0.769531 0.546875 0.53125 0.640625 0.328125 0.828125C0.140625 1.03125 0.046875 1.26953 0.046875 1.54297C0.046875 1.81641 0.140625 2.04688 0.328125 2.23438L7.61719 9.54688L0.328125 16.8359C0.140625 17.0234 0.046875 17.2578 0.046875 17.5391C0.046875 17.8203 0.140625 18.0547 0.328125 18.2422C0.53125 18.4453 0.769531 18.5469 1.04297 18.5469C1.31641 18.5469 1.54688 18.4453 1.73438 18.2422L9.04688 10.9531L16.3359 18.2422C16.5234 18.4453 16.7578 18.5469 17.0391 18.5469C17.3203 18.5469 17.5547 18.4453 17.7422 18.2422C17.9453 18.0547 18.0469 17.8203 18.0469 17.5391C18.0469 17.2578 17.9453 17.0234 17.7422 16.8359L10.4531 9.54688L17.7422 2.23438C17.9453 2.04688 18.0469 1.81641 18.0469 1.54297C18.0469 1.26953 17.9453 1.03125 17.7422 0.828125Z" fill="black"/>
</svg>
