<svg width="28" height="27" viewBox="0 0 28 27" fill="none" xmlns="http://www.w3.org/2000/svg">
<g clip-path="url(#clip0_211_47)">
<mask id="mask0_211_47" style="mask-type:luminance" maskUnits="userSpaceOnUse" x="0" y="0" width="28" height="27">
<path d="M27.4025 0.0898438H0.787109V26.7052H27.4025V0.0898438Z" fill="white"/>
</mask>
<g mask="url(#mask0_211_47)">
<path d="M14.5648 0.693203L16.1972 1.94413C16.3436 2.05816 16.5266 2.11494 16.7118 2.10382L18.7967 2.00623C18.9662 1.9964 19.1342 2.04341 19.274 2.13983C19.4138 2.23625 19.5175 2.37656 19.5685 2.53854L20.1097 4.47259C20.1624 4.64322 20.2761 4.78847 20.4291 4.88069L22.2035 5.98078C22.3542 6.06534 22.4674 6.20385 22.5201 6.36848C22.5727 6.53311 22.561 6.7116 22.4873 6.86796L21.7244 8.70442C21.6625 8.87038 21.6625 9.05309 21.7244 9.21899L22.4696 11.0909C22.5433 11.2473 22.555 11.4258 22.5023 11.5904C22.4496 11.755 22.3365 11.8936 22.1857 11.9781L20.4113 13.0782C20.2584 13.1704 20.1447 13.3157 20.092 13.4863L19.5508 15.4204C19.4997 15.5823 19.3961 15.7227 19.2562 15.8191C19.1165 15.9155 18.9484 15.9626 18.7789 15.9527L16.7562 15.8196C16.5709 15.8085 16.388 15.8653 16.2416 15.9793L14.6092 17.2302C14.4743 17.3339 14.309 17.39 14.139 17.39C13.9689 17.39 13.8036 17.3339 13.6688 17.2302L12.0364 15.9793C11.89 15.8653 11.707 15.8085 11.5218 15.8196L9.43694 15.9172C9.26738 15.9271 9.09942 15.88 8.95958 15.7836C8.81979 15.6872 8.71616 15.5469 8.66509 15.3849L8.12391 13.4508C8.07112 13.2802 7.95745 13.1349 7.80453 13.0427L6.03015 11.9426C5.87781 11.8596 5.76278 11.7217 5.7084 11.5569C5.65403 11.3921 5.66439 11.2129 5.73738 11.0554L6.48263 9.1835C6.54451 9.0176 6.54451 8.83489 6.48263 8.66894L5.71964 6.83247C5.64665 6.67506 5.63629 6.49579 5.69066 6.33105C5.74503 6.16626 5.86007 6.02836 6.01241 5.9453L7.78678 4.8452C7.93971 4.75299 8.05338 4.60773 8.10617 4.4371L8.64735 2.50305C8.69842 2.34107 8.80205 2.20077 8.94184 2.10435C9.08168 2.00793 9.24963 1.96091 9.41919 1.97074L11.5041 2.06833C11.6893 2.07945 11.8722 2.02268 12.0186 1.90864L13.6244 0.693203C13.7593 0.589607 13.9246 0.533447 14.0946 0.533447C14.2647 0.533447 14.43 0.589607 14.5648 0.693203Z" stroke="#FDD568" stroke-width="1.10897" stroke-linecap="round" stroke-linejoin="round"/>
<path d="M14.0939 12.9539C16.2988 12.9539 18.0862 11.1665 18.0862 8.96155C18.0862 6.75668 16.2988 4.96924 14.0939 4.96924C11.889 4.96924 10.1016 6.75668 10.1016 8.96155C10.1016 11.1665 11.889 12.9539 14.0939 12.9539Z" stroke="#FDD568" stroke-width="1.10897" stroke-linecap="round" stroke-linejoin="round"/>
<path d="M26.9582 22.7128L20.127 13.3975" stroke="#FDD568" stroke-width="1.10897" stroke-linecap="round" stroke-linejoin="round"/>
<path d="M26.9583 22.7129L20.748 21.8257" stroke="#FDD568" stroke-width="1.10897" stroke-linecap="round" stroke-linejoin="round"/>
<path d="M18.0859 26.2616L20.7475 21.8257" stroke="#FDD568" stroke-width="1.10897" stroke-linecap="round" stroke-linejoin="round"/>
<path d="M18.0855 26.2616L15.832 16.3252" stroke="#FDD568" stroke-width="1.10897" stroke-linecap="round" stroke-linejoin="round"/>
<path d="M1.23047 22.7128L8.06175 13.3975" stroke="#FDD568" stroke-width="1.10897" stroke-linecap="round" stroke-linejoin="round"/>
<path d="M1.23047 22.7129L7.44072 21.8257" stroke="#FDD568" stroke-width="1.10897" stroke-linecap="round" stroke-linejoin="round"/>
<path d="M10.101 26.2616L7.43945 21.8257" stroke="#FDD568" stroke-width="1.10897" stroke-linecap="round" stroke-linejoin="round"/>
<path d="M10.1016 26.2616L12.355 16.3252" stroke="#FDD568" stroke-width="1.10897" stroke-linecap="round" stroke-linejoin="round"/>
</g>
</g>
<defs>
<clipPath id="clip0_211_47">
<rect width="26.6154" height="26.6154" fill="white" transform="translate(0.787109 0.0898438)"/>
</clipPath>
</defs>
</svg>
