<svg width="20" height="20" viewBox="0 0 20 20" fill="none" xmlns="http://www.w3.org/2000/svg">
<path fill-rule="evenodd" clip-rule="evenodd" d="M18.2576 2.3037C15.9647 0.0107475 12.2318 0.0107475 9.93882 2.3037L1.20353 11.039C-0.401177 12.6449 -0.401177 15.2566 1.20353 16.8613C2.76118 18.4178 5.47411 18.4166 7.02706 16.8613L14.9306 8.95899C15.8471 8.04134 15.8471 6.54839 14.9306 5.63076C14.0106 4.71192 12.5176 4.71428 11.6024 5.63076L4.94823 12.286L5.78 13.1178L12.4341 6.46252C12.8918 6.00605 13.6376 6.00487 14.0988 6.46252C14.5565 6.92134 14.5565 7.66957 14.0988 8.12723L6.19529 16.0296C5.04706 17.1766 3.18118 17.1755 2.03529 16.0296C0.888229 14.8825 0.889406 13.0166 2.03529 11.8707L10.7706 3.13546C12.6035 1.30252 15.5871 1.30016 17.4259 3.13546C19.26 4.97075 19.26 7.95663 17.4259 9.79075L9.10706 18.1107L9.93882 18.9425L18.2576 10.6225C20.5494 8.32957 20.5494 4.59663 18.2576 2.3037Z" fill="black"/>
</svg>
