<svg width="42" height="41" viewBox="0 0 42 41" fill="none" xmlns="http://www.w3.org/2000/svg">
<g clip-path="url(#clip0_211_114)">
<g clip-path="url(#clip1_211_114)">
<g clip-path="url(#clip2_211_114)">
<mask id="mask0_211_114" style="mask-type:luminance" maskUnits="userSpaceOnUse" x="0" y="0" width="42" height="41">
<path d="M41.1426 0H0.142578V41H41.1426V0Z" fill="white"/>
</mask>
<g mask="url(#mask0_211_114)">
<path d="M20.6426 41C31.9644 41 41.1426 31.8218 41.1426 20.5C41.1426 9.17816 31.9644 0 20.6426 0C9.32074 0 0.142578 9.17816 0.142578 20.5C0.142578 31.8218 9.32074 41 20.6426 41Z" fill="#449AD1"/>
<path fill-rule="evenodd" clip-rule="evenodd" d="M28.4257 30.0708C28.393 30.4464 28.2545 30.8029 28.0281 31.0945C27.8017 31.3862 27.4977 31.5995 27.1554 31.7068C26.8131 31.8143 26.4483 31.811 26.1078 31.6972C25.7673 31.5836 25.4667 31.3648 25.2452 31.069C23.2976 29.433 20.2603 27.0799 20.2603 27.0799C20.2603 27.0799 18.0624 31.1672 17.6693 31.586C17.5395 31.7016 17.3885 31.7871 17.2256 31.8373C17.0628 31.8875 16.8915 31.9012 16.7232 31.8776C16.5551 31.8541 16.3934 31.7935 16.2487 31.7001C16.1039 31.6067 15.9791 31.4824 15.8825 31.335C15.8613 31.2733 15.8437 31.2102 15.8291 31.1464L17.0439 24.6324L25.835 15.5126L13.8456 22.7378C13.8456 22.7378 8.43163 21.0283 7.62758 20.6944C7.42017 20.5747 7.24913 20.3953 7.13421 20.1773C7.01931 19.9592 6.96539 19.7111 6.97849 19.4619C6.99157 19.2127 7.07111 18.9725 7.20815 18.7692C7.34519 18.5658 7.5341 18.4076 7.75279 18.3129C8.89631 17.6978 29.0689 9.56103 29.7479 9.35157C30.4268 9.14211 32.2137 8.59678 32.0171 10.4328C31.8206 12.2689 28.6222 29.0631 28.4257 30.0708Z" fill="white"/>
</g>
</g>
</g>
</g>
<defs>
<clipPath id="clip0_211_114">
<rect width="41" height="41" fill="white" transform="translate(0.142578)"/>
</clipPath>
<clipPath id="clip1_211_114">
<rect width="41" height="41" fill="white" transform="translate(0.142578)"/>
</clipPath>
<clipPath id="clip2_211_114">
<rect width="41" height="41" fill="white" transform="translate(0.142578)"/>
</clipPath>
</defs>
</svg>
