<svg width="42" height="41" viewBox="0 0 42 41" fill="none" xmlns="http://www.w3.org/2000/svg">
<g clip-path="url(#clip0_211_123)">
<g clip-path="url(#clip1_211_123)">
<g clip-path="url(#clip2_211_123)">
<mask id="mask0_211_123" style="mask-type:luminance" maskUnits="userSpaceOnUse" x="0" y="0" width="42" height="41">
<path d="M41.9551 0H0.955078V41H41.9551V0Z" fill="white"/>
</mask>
<g mask="url(#mask0_211_123)">
<path d="M21.4551 41C32.7769 41 41.9551 31.8218 41.9551 20.5C41.9551 9.17816 32.7769 0 21.4551 0C10.1332 0 0.955078 9.17816 0.955078 20.5C0.955078 31.8218 10.1332 41 21.4551 41Z" fill="#6CB75B"/>
<path d="M21.4556 6.35461C13.6562 6.35461 7.31064 12.7002 7.31064 20.4996C7.31064 22.935 7.93978 25.3298 9.13288 27.4429L7.33339 33.8635C7.27435 34.0746 7.33155 34.3008 7.48407 34.4577C7.60153 34.5789 7.76143 34.6446 7.92564 34.6446C7.97484 34.6446 8.02465 34.6384 8.07324 34.6268L14.7743 32.9669C16.8204 34.0653 19.1247 34.6446 21.4556 34.6446C29.2551 34.6446 35.6006 28.2991 35.6006 20.4996C35.6006 12.7002 29.2551 6.35461 21.4556 6.35461ZM28.5711 25.491C28.2686 26.3286 26.8172 27.093 26.1197 27.1958C25.4937 27.2874 24.7016 27.3267 23.8319 27.0537C23.305 26.8876 22.6285 26.6674 21.7619 26.2979C18.1192 24.7444 15.7405 21.1227 15.5584 20.8833C15.377 20.6441 14.0756 18.9394 14.0756 17.1749C14.0756 15.4105 15.0135 14.5427 15.3469 14.1835C15.6801 13.8244 16.0732 13.7346 16.3155 13.7346C16.5578 13.7346 16.7994 13.7377 17.0116 13.7475C17.2349 13.7585 17.5343 13.6632 17.829 14.3632C18.1315 15.0814 18.8579 16.8458 18.9477 17.0261C19.0386 17.2056 19.099 17.4154 18.9784 17.6546C18.8579 17.8939 18.7976 18.0433 18.6156 18.253C18.4335 18.4628 18.2343 18.7204 18.0707 18.8815C17.8886 19.0605 17.6999 19.2542 17.9114 19.6133C18.1229 19.9726 18.8517 21.1466 19.9317 22.0974C21.3185 23.3187 22.4888 23.6976 22.8517 23.8772C23.2145 24.0567 23.4267 24.0266 23.6382 23.7874C23.8499 23.5476 24.546 22.7401 24.7877 22.3815C25.0294 22.023 25.2717 22.0821 25.6051 22.202C25.9383 22.3213 27.7237 23.1884 28.0866 23.3679C28.4494 23.5476 28.6917 23.6374 28.7827 23.7868C28.8738 23.9356 28.8738 24.6539 28.5711 25.491Z" fill="white"/>
</g>
</g>
</g>
</g>
<defs>
<clipPath id="clip0_211_123">
<rect width="41" height="41" fill="white" transform="translate(0.955078)"/>
</clipPath>
<clipPath id="clip1_211_123">
<rect width="41" height="41" fill="white" transform="translate(0.955078)"/>
</clipPath>
<clipPath id="clip2_211_123">
<rect width="41" height="41" fill="white" transform="translate(0.955078)"/>
</clipPath>
</defs>
</svg>
