<svg aria-hidden="true" xmlns="http://www.w3.org/2000/svg" xmlns:xlink="http://www.w3.org/1999/xlink"><symbol viewBox="0 0 24 24" fill="none" id="icon-burger" xmlns="http://www.w3.org/2000/svg">
<path d="M20 18H4M20 12H4M20 6H4" stroke="currentColor" stroke-width="2" stroke-linecap="round"/>
</symbol><symbol viewBox="0 0 19 19" fill="none" id="icon-close" xmlns="http://www.w3.org/2000/svg">
<path d="M17.7422 0.828125C17.5547 0.640625 17.3203 0.546875 17.0391 0.546875C16.7578 0.546875 16.5234 0.640625 16.3359 0.828125L9.04688 8.11719L1.73438 0.828125C1.54688 0.640625 1.31641 0.546875 1.04297 0.546875C0.769531 0.546875 0.53125 0.640625 0.328125 0.828125C0.140625 1.03125 0.046875 1.26953 0.046875 1.54297C0.046875 1.81641 0.140625 2.04688 0.328125 2.23438L7.61719 9.54688L0.328125 16.8359C0.140625 17.0234 0.046875 17.2578 0.046875 17.5391C0.046875 17.8203 0.140625 18.0547 0.328125 18.2422C0.53125 18.4453 0.769531 18.5469 1.04297 18.5469C1.31641 18.5469 1.54688 18.4453 1.73438 18.2422L9.04688 10.9531L16.3359 18.2422C16.5234 18.4453 16.7578 18.5469 17.0391 18.5469C17.3203 18.5469 17.5547 18.4453 17.7422 18.2422C17.9453 18.0547 18.0469 17.8203 18.0469 17.5391C18.0469 17.2578 17.9453 17.0234 17.7422 16.8359L10.4531 9.54688L17.7422 2.23438C17.9453 2.04688 18.0469 1.81641 18.0469 1.54297C18.0469 1.26953 17.9453 1.03125 17.7422 0.828125Z" fill="currentColor"/>
</symbol><symbol viewBox="0 0 15 9" fill="none" id="icon-down" xmlns="http://www.w3.org/2000/svg">
<path d="M13.698 0.704875C14.0128 0.415681 14.5035 0.434945 14.7941 0.748109C15.0847 1.0614 15.0654 1.54972 14.7507 1.839L7.5 8.5L0.249302 1.839C-0.0653676 1.54972 -0.0847248 1.0614 0.20586 0.748109C0.496535 0.434945 0.987201 0.415681 1.302 0.704875L7.5 6.39864L13.698 0.704875Z" fill="currentColor"/>
</symbol><symbol viewBox="0 0 15 19" fill="none" id="icon-location" xmlns="http://www.w3.org/2000/svg">
<path d="M7.0432 0C3.14596 0 0 3.14596 0 7.0432C0 11.7387 7.0432 18.7819 7.0432 18.7819C7.0432 18.7819 14.0864 11.7387 14.0864 7.0432C14.0864 3.14596 10.9404 0 7.0432 0ZM7.0432 2.34773C9.64919 2.34773 11.7387 4.46069 11.7387 7.0432C11.7387 9.64919 9.64919 11.7387 7.0432 11.7387C4.46069 11.7387 2.34773 9.64919 2.34773 7.0432C2.34773 4.46069 4.46069 2.34773 7.0432 2.34773Z" fill="currentColor"/>
</symbol><symbol viewBox="0 0 24 25" fill="none" id="icon-next" xmlns="http://www.w3.org/2000/svg">
<g clip-path="url(#eclip0_211_213)">
<path d="M8.5045 4.71045C8.50378 4.83653 8.52794 4.96151 8.57561 5.07823C8.62329 5.19494 8.69353 5.3011 8.78232 5.39062L15.7756 12.3743L8.78232 19.3579C8.60193 19.5383 8.50059 19.783 8.50059 20.0381C8.50059 20.2932 8.60193 20.5379 8.78232 20.7183C8.96271 20.8987 9.20737 21 9.46248 21C9.7176 21 9.96226 20.8987 10.1426 20.7183L17.8065 13.0544C17.8963 12.9654 17.9675 12.8594 18.0162 12.7427C18.0648 12.626 18.0898 12.5007 18.0898 12.3743C18.0898 12.2478 18.0648 12.1226 18.0162 12.0059C17.9675 11.8891 17.8963 11.7832 17.8065 11.6941L10.1426 4.03029C10.0536 3.9405 9.94764 3.86923 9.8309 3.82059C9.71416 3.77196 9.58895 3.74692 9.46248 3.74692C9.33602 3.74692 9.2108 3.77196 9.09407 3.82059C8.97733 3.86923 8.87138 3.9405 8.78232 4.03029C8.69353 4.1198 8.62329 4.22596 8.57561 4.34268C8.52794 4.4594 8.50378 4.58438 8.5045 4.71045Z" fill="currentColor"/>
</g>
<defs>
<clipPath id="eclip0_211_213">
<rect width="24" height="24" fill="currentColor" transform="matrix(-1.30134e-07 -1 -1 1.32146e-07 24 24.5)"/>
</clipPath>
</defs>
</symbol><symbol viewBox="0 0 30 29" fill="none" id="icon-play" xmlns="http://www.w3.org/2000/svg">
<path d="M25.5 11.9451C27.5 13.0998 27.5 15.9865 25.5 17.1412L9.5 26.3788C7.5 27.5335 5 26.0901 5 23.7807L5 5.30553C5 2.99613 7.5 1.55275 9.5 2.70745L25.5 11.9451Z" fill="currentColor"/>
</symbol><symbol viewBox="0 0 17 17" fill="none" id="icon-plus" xmlns="http://www.w3.org/2000/svg">
<path d="M8.55664 15.8218V1.00723" stroke="currentColor" stroke-width="1.50034" stroke-linecap="round"/>
<path d="M1.31836 8.58545H16.1329" stroke="currentColor" stroke-width="1.50034" stroke-linecap="round"/>
</symbol><symbol viewBox="0 0 24 25" fill="none" id="icon-prev" xmlns="http://www.w3.org/2000/svg">
<g clip-path="url(#hclip0_211_207)">
<path d="M15.4955 4.71045C15.4962 4.83653 15.4721 4.96151 15.4244 5.07823C15.3767 5.19494 15.3065 5.3011 15.2177 5.39062L8.22444 12.3743L15.2177 19.3579C15.3981 19.5383 15.4994 19.783 15.4994 20.0381C15.4994 20.2932 15.3981 20.5379 15.2177 20.7183C15.0373 20.8987 14.7926 21 14.5375 21C14.2824 21 14.0377 20.8987 13.8574 20.7183L6.19353 13.0544C6.10374 12.9654 6.03247 12.8594 5.98383 12.7427C5.9352 12.626 5.91016 12.5007 5.91016 12.3743C5.91016 12.2478 5.9352 12.1226 5.98383 12.0059C6.03247 11.8891 6.10374 11.7832 6.19353 11.6941L13.8574 4.03029C13.9464 3.9405 14.0524 3.86923 14.1691 3.82059C14.2858 3.77196 14.4111 3.74692 14.5375 3.74692C14.664 3.74692 14.7892 3.77196 14.9059 3.82059C15.0227 3.86923 15.1286 3.9405 15.2177 4.03029C15.3065 4.1198 15.3767 4.22596 15.4244 4.34268C15.4721 4.45939 15.4962 4.58437 15.4955 4.71045Z" fill="currentColor"/>
</g>
<defs>
<clipPath id="hclip0_211_207">
<rect width="24" height="24" fill="currentColor" transform="translate(0 24.5) rotate(-90)"/>
</clipPath>
</defs>
</symbol><symbol viewBox="0 0 21 22" fill="none" id="icon-tel" xmlns="http://www.w3.org/2000/svg">
<path d="M6.28783 11.062C7.09463 12.7281 8.44186 14.0718 10.11 14.8743C10.2331 14.9326 10.3692 14.9578 10.5049 14.9475C10.6407 14.9372 10.7714 14.8917 10.8843 14.8155L13.3344 13.1789C13.4426 13.1054 13.5677 13.0606 13.698 13.0486C13.8282 13.0367 13.9594 13.0578 14.0792 13.1103L18.6658 15.0802C18.8226 15.1454 18.9536 15.2604 19.0386 15.4074C19.1236 15.5543 19.1579 15.7252 19.1363 15.8936C18.9909 17.0282 18.4371 18.071 17.5784 18.8269C16.7198 19.5827 15.6152 19.9997 14.4712 20C10.9363 20 7.54606 18.5957 5.04645 16.0961C2.54684 13.5965 1.14258 10.2063 1.14258 6.67134C1.14284 5.52743 1.5599 4.4228 2.31572 3.56415C3.07155 2.70551 4.11434 2.15168 5.24898 2.00631C5.41739 1.98468 5.58824 2.01901 5.73523 2.10401C5.88221 2.18901 5.99718 2.31998 6.06242 2.47673L8.03232 7.07316C8.08355 7.19111 8.10498 7.31984 8.09472 7.44802C8.08447 7.5762 8.04284 7.6999 7.97352 7.8082L6.33683 10.2975C6.26397 10.4101 6.2212 10.5395 6.21262 10.6733C6.20404 10.8072 6.22994 10.941 6.28783 11.062Z" stroke="currentColor" stroke-width="2.09465" stroke-linecap="round" stroke-linejoin="round"/>
</symbol></svg>