<svg width="73" height="30" viewBox="0 0 73 30" fill="none" xmlns="http://www.w3.org/2000/svg">
<g clip-path="url(#clip0_211_573)">
<path d="M8.312 29.342C9.02572 26.6367 9.73718 23.9336 10.4577 21.2056C10.1405 21.3574 9.84367 21.4888 9.54232 21.6043C8.40943 22.0348 7.24028 22.2773 6.02355 22.2478C4.74338 22.2161 3.54251 21.9034 2.47533 21.1738C1.24047 20.331 0.488231 19.1596 0.161957 17.7095C-0.100874 16.5358 -0.0306351 15.3666 0.277512 14.2111C0.812238 12.2081 1.90435 10.5405 3.40657 9.13575C4.75245 7.87598 6.30224 6.96966 8.08315 6.47572C9.37919 6.11773 10.6911 6.0203 12.0143 6.30352C13.41 6.60261 14.5837 7.27554 15.4651 8.41523C16.1471 9.29889 16.5096 10.3139 16.6252 11.4174C16.7339 12.4506 16.5935 13.4566 16.3216 14.4513C15.9545 15.7994 15.601 17.1521 15.243 18.5025C14.4704 21.4299 13.7182 24.3641 12.9183 27.2847C12.6034 28.4334 11.79 29.1064 10.614 29.3216C10.6004 29.3239 10.5891 29.3329 10.5755 29.3397C9.82328 29.342 9.06651 29.342 8.312 29.342ZM4.23811 15.2398C4.24264 15.3168 4.24264 15.4392 4.2585 15.5592C4.40125 16.7533 5.01981 17.5803 6.16176 17.9904C6.79619 18.217 7.45327 18.2306 8.10581 18.0924C9.67827 17.757 10.8723 16.8757 11.7288 15.5298C12.225 14.7481 12.4901 13.8916 12.4357 12.9536C12.3632 11.7233 11.5883 10.7377 10.4124 10.3887C9.76663 10.1961 9.11409 10.1961 8.46381 10.3479C7.03183 10.6833 5.91479 11.4899 5.08325 12.6908C4.56212 13.4407 4.2585 14.2723 4.23811 15.2398Z" fill="white"/>
<path d="M52.8802 0.00226591C52.5222 1.3572 52.1665 2.71213 51.8085 4.0648C51.7768 4.08972 51.7428 4.07839 51.7089 4.07839C51.0563 4.07839 50.4016 4.08293 49.749 4.07839C49.2891 4.07613 48.8768 3.93792 48.5641 3.58446C48.1835 3.15622 48.1155 2.64642 48.2469 2.10944C48.4214 1.40478 48.6162 0.70239 48.802 0C50.1614 0 51.5208 1.38301e-07 52.8802 0.00226591Z" fill="white"/>
<path d="M73.0001 6.20829C72.9117 6.44393 72.8619 6.6909 72.7984 6.9356C72.633 7.54963 72.4744 8.16593 72.3136 8.78222C72.3 8.83433 72.2796 8.86379 72.2161 8.86152C71.3529 8.85926 70.4873 8.85926 69.6241 8.85926C69.6105 8.85926 69.5969 8.85473 69.5742 8.85246C69.8121 7.94841 70.0501 7.05116 70.288 6.14258C71.192 6.14258 72.0961 6.14258 73.0001 6.14258C73.0001 6.16297 73.0001 6.18563 73.0001 6.20829Z" fill="white"/>
<path d="M23.4461 22.2525C22.6418 22.2479 21.5542 22.0349 20.5505 21.4866C18.9508 20.6143 18.0128 19.2594 17.6752 17.4807C17.4668 16.3818 17.5483 15.292 17.8361 14.2157C18.3572 12.2672 19.4063 10.6335 20.8496 9.24464C22.1184 8.02565 23.5821 7.12613 25.261 6.58687C26.2353 6.2742 27.2345 6.11106 28.2586 6.14505C29.5864 6.1881 30.8235 6.53249 31.9088 7.32552C33.1346 8.22277 33.8483 9.44629 34.1157 10.9326C34.3626 12.3011 34.1836 13.6334 33.7169 14.9317C33.0394 16.8191 31.8862 18.3734 30.3636 19.6604C29.0675 20.7548 27.6061 21.541 25.9589 21.967C25.2316 22.1573 24.4884 22.2502 23.4461 22.2525ZM21.7989 15.2376C21.8034 15.3146 21.8034 15.437 21.8193 15.5571C21.9621 16.7511 22.5783 17.5804 23.718 17.9883C24.3524 18.2171 25.0095 18.2307 25.6621 18.0925C27.239 17.7571 28.4354 16.8735 29.2918 15.5231C29.7858 14.7437 30.0486 13.8895 29.9942 12.956C29.9217 11.7256 29.1491 10.74 27.9732 10.3888C27.3274 10.1962 26.6749 10.1962 26.0246 10.348C24.5926 10.6834 23.4756 11.49 22.6418 12.6886C22.1229 13.4386 21.8193 14.2701 21.7989 15.2376Z" fill="white"/>
<path d="M48.4918 22.2527C48.4805 22.1801 48.5326 22.1552 48.5643 22.1235C50.5084 20.2021 52.4524 18.2807 54.3965 16.3616C55.1011 15.666 55.8035 14.9704 56.5082 14.2771C56.5649 14.2204 56.5784 14.1797 56.5399 14.1026C55.2711 11.4902 54.0045 8.87546 52.7357 6.26074C52.7198 6.22676 52.7062 6.19277 52.6926 6.16332C52.7107 6.13613 52.7311 6.14292 52.7493 6.14292C53.4517 6.14292 54.154 6.13613 54.8564 6.14519C55.5113 6.15425 56.123 6.32645 56.6645 6.70937C57.0543 6.98579 57.3556 7.33926 57.5573 7.77202C58.0693 8.87319 58.6131 9.96077 59.1388 11.0552C59.2045 11.1911 59.2702 11.3248 59.3563 11.5015C59.6327 11.2115 59.8888 10.9351 60.1539 10.67C61.0874 9.74099 62.0322 8.82334 62.9589 7.88531C63.7361 7.10135 64.6311 6.53264 65.7073 6.26528C66.0268 6.18597 66.3508 6.14066 66.6816 6.14066C67.3613 6.13839 68.0411 6.14066 68.7208 6.14066C68.7435 6.14066 68.7639 6.14066 68.8024 6.14066C68.6053 6.34005 68.4217 6.52584 68.2359 6.70937C65.7345 9.17907 63.2353 11.6488 60.7339 14.1185C60.6773 14.1751 60.6682 14.2182 60.7044 14.293C61.9665 16.8918 63.2263 19.4952 64.4883 22.0963C64.511 22.1416 64.5495 22.1847 64.5132 22.2481C64.4906 22.2504 64.4634 22.2527 64.4385 22.2527C63.7587 22.2527 63.079 22.264 62.3993 22.2504C61.5269 22.2323 60.7566 21.9536 60.1471 21.3033C59.9363 21.079 59.78 20.8161 59.6486 20.5397C59.0776 19.3479 58.5021 18.1606 57.9289 16.9711C57.9243 16.962 57.9153 16.953 57.9085 16.9417C57.8699 16.9439 57.8541 16.9756 57.8314 16.9983C56.6849 18.1312 55.5294 19.255 54.3942 20.3992C53.8799 20.9181 53.3293 21.3781 52.6745 21.7089C51.9494 22.0737 51.1836 22.2685 50.3679 22.2572C49.7426 22.2436 49.1195 22.2527 48.4918 22.2527Z" fill="white"/>
<path d="M33.2988 22.2476C33.3826 21.9282 33.4619 21.62 33.5435 21.3096C33.7633 20.4758 33.9853 19.642 34.2051 18.8082C34.4272 17.9676 34.6469 17.1247 34.869 16.2841C35.2474 14.8453 35.628 13.4066 36.0087 11.9678C36.1718 11.3492 36.3236 10.7261 36.5026 10.1121C36.7836 9.15142 37.3274 8.34706 38.0592 7.67186C38.8386 6.95134 39.7404 6.4574 40.7895 6.24895C40.9979 6.20816 41.2064 6.18097 41.4171 6.17191C42.831 6.113 44.2448 6.16058 45.6609 6.14699C45.6677 6.14699 45.6745 6.14925 45.6994 6.15605C45.3415 7.50872 44.9857 8.8614 44.63 10.2118C44.5892 10.2345 44.5462 10.2231 44.5076 10.2231C43.9117 10.2231 43.3136 10.2231 42.7177 10.2231C41.5802 10.2277 40.7782 10.785 40.2185 11.7389C40.0395 12.0426 39.9783 12.387 39.89 12.7223C39.5161 14.1316 39.1423 15.5409 38.7707 16.9502C38.3719 18.466 37.9731 19.9819 37.5766 21.4977C37.5109 21.7492 37.4429 21.9984 37.375 22.2499C36.0177 22.2476 34.6673 22.2476 33.2988 22.2476Z" fill="white"/>
<path d="M47.1839 6.14457C47.9135 6.14457 48.6317 6.12418 49.35 6.1491C50.2903 6.18083 50.9157 6.95572 50.7797 7.88696C50.714 8.34691 50.5645 8.78874 50.4466 9.2351C49.4633 12.9714 48.4754 16.7077 47.4898 20.444C47.338 21.0149 47.1884 21.5882 47.0366 22.1592C47.0298 22.1886 47.0185 22.2158 47.0117 22.2453C45.6522 22.2453 44.2973 22.2453 42.9355 22.2453C44.3516 16.8776 45.7655 11.5145 47.1839 6.14457Z" fill="white"/>
</g>
<defs>
<clipPath id="clip0_211_573">
<rect width="73" height="30" fill="white"/>
</clipPath>
</defs>
</svg>
